{"title":"Circle.of.Pain.2010.DVDRip.XViD-SPRiNTER","uid":5631553,"size":751392988,"categoryP":"video","categoryS":"movies","magnet":"?xt=urn:btih:54ec972191593c387488e5135eebfc2eb671bb29&amp;dn=Circle.of.Pain.2010.DVDRip.XViD-SPRiNTER&amp;tr=udp%3A%2F%2Ftracker.openbittorrent.com%3A80&amp;tr=udp%3A%2F%2Fopen.demonii.com%3A1337&amp;tr=udp%3A%2F%2Ftracker.coppersurfer.tk%3A6969&amp;tr=udp%3A%2F%2Fexodus.desync.com%3A6969","seeders":1,"leechers":1,"uploader":".BONE.","files":2,"time":1276704025,"description":"Size: 701 MB\nGenre: Action\nIMDB Rating: (awaiting 5 votes)\nIMDB Link: Click here\nDirected By: Daniel Zirilli\nStarring: Tony Schiena, Dean Cain\n\n101\tFormat                           : AVI\n102\tFormat/Info                      : Audio Video Interleave\n103\tFile size                        : 702 MiB\n104\tDuration                         : 1h 28mn\n105\tOverall bit rate                 : 1 110 Kbps\n106\tWriting application              : VirtualDubMod 1.5.10.2 (build 2540/release)\n107\tWriting library                  : VirtualDubMod build 2540/release\n108\t \n109\tVideo\n110\tID                               : 0\n111\tFormat                           : MPEG-4 Visual\n112\tFormat profile                   : AdvancedSimple@L5\n113\tFormat settings, BVOP            : Yes\n114\tFormat settings, QPel            : No\n115\tFormat settings, GMC             : No warppoints\n116\tFormat settings, Matrix          : Default (H.263)\n117\tCodec ID                         : XVID\n118\tCodec ID/Hint                    : XviD\n119\tDuration                         : 1h 28mn\n120\tBit rate                         : 935 Kbps\n121\tWidth                            : 640 pixels\n122\tHeight                           : 352 pixels\n123\tDisplay aspect ratio             : 16:9\n124\tFrame rate                       : 23.976 fps\n125\tResolution                       : 24 bits\n126\tColorimetry                      : 4:2:0\n127\tScan type                        : Progressive\n128\tBits/(Pixel*Frame)               : 0.173\n129\tStream size                      : 591 MiB (84%)\n130\tWriting library                  : XviD 1.2.1 (UTC 2008-12-04)\n131\t \n132\tAudio\n133\tID                               : 1\n134\tFormat                           : MPEG Audio\n135\tFormat version                   : Version 1\n136\tFormat profile                   : Layer 3\n137\tFormat_Settings_Mode             : Joint stereo / MS Stereo\n138\tCodec ID                         : 55\n139\tCodec ID/Hint                    : MP3\n140\tDuration                         : 1h 28mn\n141\tBit rate mode                    : Variable\n142\tBit rate                         : 162 Kbps\n143\tMinimum bit rate                 : 96.0 Kbps\n144\tChannel(s)                       : 2 channels\n145\tSampling rate                    : 48.0 KHz\n146\tResolution                       : 16 bits\n147\tStream size                      : 102 MiB (15%)\n148\tAlignment                        : Aligned on interleaves\n149\tInterleave, duration             : 24 ms (0.58 video frame)\n150\tInterleave, preload duration     : 531 ms\n151\tWriting library                  : LAME3.95\n152\tEncoding settings                : -m j -V 2 -q 3 -lowpass 19 --vbr-new -","torrent":{"xt":"urn:btih:54ec972191593c387488e5135eebfc2eb671bb29","amp;dn":"Circle.of.Pain.2010.DVDRip.XViD-SPRiNTER","amp;tr":["udp%3A%2F%2Ftracker.openbittorrent.com%3A80","udp%3A%2F%2Fopen.demonii.com%3A1337","udp%3A%2F%2Ftracker.coppersurfer.tk%3A6969","udp%3A%2F%2Fexodus.desync.com%3A6969"],"infoHash":"54ec972191593c387488e5135eebfc2eb671bb29","infoHashBuffer":{"type":"Buffer","data":[84,236,151,33,145,89,60,56,116,136,229,19,94,235,252,46,182,113,187,41]},"announce":[],"urlList":[]}}